<?xml version="1.0" encoding="utf-8"?>
<!-- Generator: Adobe Illustrator 21.0.0, SVG Export Plug-In . SVG Version: 6.00 Build 0)  -->
<svg version="1.1" id="图层_1" xmlns="http://www.w3.org/2000/svg" xmlns:xlink="http://www.w3.org/1999/xlink" x="0px" y="0px"
	 viewBox="0 0 41 39" style="enable-background:new 0 0 41 39;" xml:space="preserve">
<style type="text/css">
	.st0{fill:#275BFA;}
</style>
<path id="用户1" class="st0" d="M38,34.9c-0.1,0.6-0.6,1-1.2,1c-0.5-0.1-0.9-0.5-1-1c-0.2-8.5-7.3-15.1-15.7-14.9
	c-8.1,0.2-14.7,6.8-14.9,14.9c-0.1,0.6-0.6,1-1.2,1c-0.5-0.1-0.9-0.5-1-1c0.1-7.7,5.2-14.3,12.6-16.4c-2.4-1.6-3.8-4.2-3.9-7.1
	c0.1-4.8,4.1-8.6,9-8.5c4.7,0.1,8.4,3.9,8.5,8.5c0,2.9-1.5,5.5-3.9,7.1C32.8,20.6,37.9,27.3,38,34.9z M27.1,11.5
	c0.1-3.6-2.8-6.6-6.4-6.7s-6.6,2.8-6.7,6.4c-0.1,3.6,2.8,6.6,6.4,6.7c0.1,0,0.1,0,0.2,0C24.1,18,27,15.1,27.1,11.5L27.1,11.5z"/>
</svg>
