<?xml version="1.0" encoding="utf-8"?>
<!-- Generator: Adobe Illustrator 21.0.0, SVG Export Plug-In . SVG Version: 6.00 Build 0)  -->
<svg version="1.1" id="图层_1" xmlns="http://www.w3.org/2000/svg" xmlns:xlink="http://www.w3.org/1999/xlink" x="0px" y="0px"
	 viewBox="0 0 40 38" style="enable-background:new 0 0 40 38;" xml:space="preserve">
<style type="text/css">
	.st0{fill:#00B4FF;}
</style>
<path class="st0" d="M26.9,17.7c1.8-1.7,2.8-4.1,2.8-6.7c-0.1-5.2-4.3-9.4-9.5-9.5c-5.4-0.1-9.9,4.1-10,9.5c0,2.5,1,4.9,2.8,6.7
	C6.2,20.4,1.6,27,1.5,34.4c0,0,0,0.1,0,0.1c0.1,1,0.9,1.8,1.9,1.9C4,36.5,4.5,36.3,4.9,36c0.4-0.4,0.7-0.9,0.8-1.5
	c0.2-7.6,6.3-13.7,13.9-13.9c7.9-0.2,14.5,6,14.7,14c0.1,1,0.9,1.8,1.9,1.9c0.1,0,0.1,0,0.2,0c0.5,0,1-0.2,1.3-0.5
	c0.4-0.4,0.7-0.9,0.8-1.4c0,0,0-0.1,0-0.1C38.4,27,33.8,20.4,26.9,17.7z M20,5.3c0.1,0,0.1,0,0.2,0c3.1,0.1,5.5,2.6,5.4,5.7
	c0,0,0,0,0,0c0,3-2.5,5.4-5.5,5.4c0,0,0,0-0.1,0l-0.1,0c-3.1-0.1-5.5-2.6-5.4-5.7C14.5,7.7,17,5.3,20,5.3z"/>
</svg>
